<?xml version="1.0" standalone="no"?>
<!DOCTYPE svg PUBLIC "-//W3C//DTD SVG 20010904//EN"
 "http://www.w3.org/TR/2001/REC-SVG-20010904/DTD/svg10.dtd">
<svg version="1.0" xmlns="http://www.w3.org/2000/svg"
 width="290.000000pt" height="300.000000pt" viewBox="0 0 290.000000 300.000000"
 preserveAspectRatio="xMidYMid meet">

<g transform="translate(0.000000,300.000000) scale(0.100000,-0.100000)"
fill="#000000" stroke="none">
<path d="M1345 2991 c-356 -42 -648 -183 -901 -435 -224 -225 -354 -469 -416
-779 -31 -158 -31 -396 0 -554 62 -310 192 -554 416 -779 225 -224 469 -355
779 -416 144 -28 385 -30 527 -5 210 38 413 120 588 236 87 59 308 258 298
269 -3 3 -25 -13 -48 -34 -157 -145 -384 -254 -623 -300 -116 -22 -328 -23
-450 -1 -397 71 -753 337 -935 696 -116 231 -163 556 -116 805 104 548 522
961 1065 1051 152 26 378 17 520 -20 313 -81 588 -273 759 -528 28 -43 52 -75
52 -70 0 14 -98 182 -148 253 -71 101 -264 287 -371 359 -178 118 -384 201
-586 236 -109 19 -314 27 -410 16z"/>
<path d="M1080 2424 c0 -14 4 -23 9 -20 5 3 7 15 4 26 -7 28 -13 25 -13 -6z"/>
<path d="M1110 2440 c8 -5 20 -10 25 -10 6 0 3 5 -5 10 -8 5 -19 10 -25 10 -5
0 -3 -5 5 -10z"/>
<path d="M2370 2440 c-8 -5 -10 -10 -5 -10 6 0 17 5 25 10 8 5 11 10 5 10 -5
0 -17 -5 -25 -10z"/>
<path d="M2407 2430 c-3 -11 -1 -23 4 -26 5 -3 9 6 9 20 0 31 -6 34 -13 6z"/>
<path d="M1110 2400 c0 -5 5 -10 10 -10 6 0 10 5 10 10 0 6 -4 10 -10 10 -5 0
-10 -4 -10 -10z"/>
<path d="M2370 2400 c0 -5 5 -10 11 -10 5 0 7 5 4 10 -3 6 -8 10 -11 10 -2 0
-4 -4 -4 -10z"/>
<path d="M1161 2334 c-12 -14 -11 -21 3 -48 8 -17 15 -24 15 -16 -3 35 1 42
21 37 18 -5 18 -4 3 19 -18 28 -23 29 -42 8z"/>
<path d="M2297 2326 c-15 -23 -15 -24 3 -19 20 5 24 -2 21 -37 0 -8 7 -1 16
17 14 29 15 33 0 47 -20 21 -22 20 -40 -8z"/>
<path d="M1690 2315 c-13 -14 -18 -25 -12 -25 7 0 12 -11 12 -25 0 -14 5 -25
10 -25 6 0 10 7 10 15 0 9 6 12 15 9 14 -6 13 -8 -2 -19 -10 -8 -15 -17 -11
-20 4 -4 14 0 23 8 8 9 25 14 38 12 20 -4 23 -1 22 32 0 46 -25 65 -53 39 -20
-17 -40 -7 -27 14 11 18 -1 11 -25 -15z m17 -27 c-3 -8 -6 -5 -6 6 -1 11 2 17
5 13 3 -3 4 -12 1 -19z m73 -4 c0 -14 -21 -19 -33 -7 -9 9 13 34 24 27 5 -3 9
-12 9 -20z"/>
<path d="M1812 2334 c3 -5 2 -31 -2 -59 -4 -27 -6 -52 -4 -54 6 -6 32 25 36
45 2 10 10 18 16 17 16 -4 15 2 -3 17 -12 10 -17 8 -25 -11 -10 -22 -10 -21
-6 8 3 18 0 35 -6 39 -6 4 -9 3 -6 -2z"/>
<path d="M1220 2280 c0 -5 5 -10 11 -10 5 0 7 5 4 10 -3 6 -8 10 -11 10 -2 0
-4 -4 -4 -10z"/>
<path d="M2265 2280 c-3 -5 -1 -10 4 -10 6 0 11 5 11 10 0 6 -2 10 -4 10 -3 0
-8 -4 -11 -10z"/>
<path d="M1280 2200 c0 -5 5 -10 11 -10 5 0 7 5 4 10 -3 6 -8 10 -11 10 -2 0
-4 -4 -4 -10z"/>
<path d="M2205 2200 c-3 -5 -1 -10 4 -10 6 0 11 5 11 10 0 6 -2 10 -4 10 -3 0
-8 -4 -11 -10z"/>
<path d="M1730 2190 c-13 -8 -12 -10 3 -10 9 0 17 5 17 10 0 12 -1 12 -20 0z"/>
<path d="M1775 2188 c11 -6 23 -16 27 -22 5 -7 8 -5 8 5 0 16 -20 29 -43 29
-7 0 -3 -6 8 -12z"/>
<path d="M1320 2150 c0 -5 5 -10 11 -10 5 0 7 5 4 10 -3 6 -8 10 -11 10 -2 0
-4 -4 -4 -10z"/>
<path d="M1737 2133 c-18 -17 -5 -31 29 -31 22 0 33 4 31 12 -3 6 -10 10 -16
9 -6 -2 -11 2 -11 7 0 11 -23 14 -33 3z"/>
<path d="M1720 2032 c0 -5 7 -15 15 -22 8 -7 15 -9 15 -6 0 4 -7 14 -15 22 -8
9 -15 11 -15 6z"/>
<path d="M1414 2018 c-4 -7 -4 -10 1 -6 4 4 15 2 24 -5 14 -11 14 -10 2 6 -16
20 -18 21 -27 5z"/>
<path d="M1785 2020 c-4 -6 -11 -8 -16 -5 -5 4 -9 1 -9 -4 0 -6 9 -11 20 -11
11 0 20 7 20 15 0 17 -6 19 -15 5z"/>
<path d="M2066 2022 c-3 -5 1 -9 9 -9 8 0 12 4 9 9 -3 4 -7 8 -9 8 -2 0 -6 -4
-9 -8z"/>
<path d="M1310 2001 c0 -6 4 -13 10 -16 6 -3 7 1 4 9 -7 18 -14 21 -14 7z"/>
<path d="M2176 1993 c-6 -14 -5 -15 5 -6 7 7 10 15 7 18 -3 3 -9 -2 -12 -12z"/>
<path d="M1763 1979 c-28 -10 -27 -47 0 -45 19 1 43 41 29 50 -4 2 -17 0 -29
-5z m17 -25 c0 -9 -5 -14 -12 -12 -18 6 -21 28 -4 28 9 0 16 -7 16 -16z"/>
<path d="M1673 1951 c2 -11 7 -24 12 -28 4 -5 5 -3 2 4 -4 6 -3 13 2 15 5 1 3
9 -5 16 -12 11 -13 9 -11 -7z"/>
<path d="M1810 1951 c0 -5 8 -15 18 -22 15 -12 16 -12 5 2 -7 9 -10 19 -6 22
3 4 1 7 -5 7 -7 0 -12 -4 -12 -9z"/>
<path d="M1698 1912 c-45 -3 -48 -5 -47 -30 1 -23 2 -24 7 -7 8 23 53 30 85
14 14 -8 17 -8 13 0 -5 7 10 9 47 6 29 -2 60 1 68 6 10 6 0 9 -31 10 -25 0
-56 1 -70 2 -14 1 -46 1 -72 -1z"/>
<path d="M1484 1844 c-18 -14 -18 -15 4 -4 15 7 22 7 22 0 0 -5 7 -10 15 -10
8 0 15 5 15 12 0 6 -3 8 -7 5 -3 -4 -11 -2 -18 3 -8 6 -18 5 -31 -6z"/>
<path d="M1985 1850 c-4 -6 -11 -8 -16 -5 -5 4 -9 1 -9 -4 0 -6 7 -11 15 -11
8 0 15 5 15 10 0 7 6 7 20 0 11 -6 20 -8 20 -6 0 12 -39 26 -45 16z"/>
<path d="M1443 1805 c0 -8 4 -12 9 -9 5 3 6 10 3 15 -9 13 -12 11 -12 -6z"/>
<path d="M1532 1809 c2 -6 8 -10 13 -10 5 0 11 4 13 10 2 6 -4 11 -13 11 -9 0
-15 -5 -13 -11z"/>
<path d="M1945 1811 c-6 -11 9 -23 19 -14 9 9 7 23 -3 23 -6 0 -12 -4 -16 -9z"/>
<path d="M2047 1814 c-3 -3 -3 -12 0 -20 4 -10 0 -12 -10 -8 -12 4 -15 1 -12
-15 2 -12 0 -21 -6 -21 -5 0 -9 -8 -9 -17 0 -12 8 -6 23 17 24 36 35 85 14 64z"/>
<path d="M1680 1800 c0 -5 7 -7 15 -4 8 4 15 8 15 10 0 2 -7 4 -15 4 -8 0 -15
-4 -15 -10z"/>
<path d="M1730 1799 c0 -5 4 -8 9 -5 5 4 12 0 14 -6 3 -8 6 -6 6 5 1 9 -6 17
-14 17 -8 0 -15 -5 -15 -11z"/>
<path d="M1788 1803 c7 -3 16 -2 19 1 4 3 -2 6 -13 5 -11 0 -14 -3 -6 -6z"/>
<path d="M1831 1793 c0 -11 3 -13 6 -5 2 6 10 9 15 6 7 -4 8 -2 4 4 -11 18
-26 14 -25 -5z"/>
<path d="M1456 1782 c-3 -5 4 -21 15 -38 13 -21 19 -24 19 -11 0 9 -4 17 -9
17 -6 0 -8 9 -6 20 4 20 -9 28 -19 12z"/>
<path d="M1555 1780 c-6 -10 2 -14 20 -10 6 1 6 -2 2 -7 -5 -4 -14 -8 -20 -8
-7 -1 -11 -7 -9 -14 2 -7 -3 -11 -10 -9 -7 3 -21 -4 -30 -14 -24 -24 -3 -23
32 2 15 11 37 23 48 27 19 8 19 8 -3 26 -15 10 -26 13 -30 7z"/>
<path d="M1926 1781 c-4 -5 -2 -12 3 -15 5 -4 12 -2 15 3 4 5 2 12 -3 15 -5 4
-12 2 -15 -3z"/>
<path d="M1875 1749 c3 -4 12 -6 21 -2 8 3 32 -6 54 -21 46 -30 68 -34 43 -8
-10 10 -24 17 -31 14 -7 -2 -12 2 -10 9 2 9 -10 14 -39 15 -24 1 -40 -2 -38
-7z"/>
<path d="M1550 1700 c-25 -16 -40 -30 -33 -30 6 0 15 5 18 10 11 18 25 11 25
-13 0 -27 53 -76 84 -79 11 0 27 -2 35 -2 8 -1 18 -10 22 -21 5 -13 8 -15 8
-5 1 9 -6 25 -14 37 -14 20 -14 22 12 26 17 2 10 5 -20 6 -44 1 -47 2 -37 21
13 24 7 25 -25 4 -34 -22 -57 -11 -53 23 2 17 8 27 16 25 8 -1 11 2 7 8 -3 5
-1 10 4 10 6 0 11 -11 11 -25 0 -16 -6 -25 -15 -25 -8 0 -15 -5 -15 -10 0 -7
6 -7 18 -1 20 11 62 45 45 36 -7 -3 -17 4 -23 15 -14 26 -17 26 -70 -10z m121
-97 c13 -15 12 -15 -6 -6 -11 6 -27 13 -35 16 -10 4 -8 6 6 6 12 1 28 -6 35
-16z"/>
<path d="M1885 1720 c-3 -5 -6 -25 -7 -44 -1 -25 -7 -37 -20 -42 -10 -3 -18
-10 -18 -15 0 -5 -6 -9 -13 -9 -7 0 -22 -6 -33 -14 -17 -13 -15 -14 19 -6 21
4 44 14 52 20 12 10 15 9 16 -6 0 -11 3 -14 6 -6 3 7 23 12 49 12 46 0 56 -15
34 -50 -9 -13 -10 -13 -10 0 0 13 -1 13 -10 0 -9 -13 -10 -13 -10 0 0 13 -1
13 -10 0 -5 -8 -10 -10 -10 -5 0 6 -9 11 -19 11 -11 0 -17 -4 -14 -9 2 -4 0
-14 -7 -22 -13 -15 4 -16 28 -1 8 5 31 8 53 8 25 -1 42 5 47 15 7 11 19 14 41
11 17 -2 31 -1 31 4 0 4 -16 8 -35 8 -35 0 -50 23 -22 33 21 7 -19 42 -50 44
-21 1 -23 0 -10 -6 17 -6 17 -9 4 -19 -12 -10 -16 -9 -21 4 -14 37 1 73 19 44
3 -5 12 -10 18 -10 7 0 -8 14 -33 30 -49 33 -56 35 -65 20z m20 -10 c-3 -5 0
-7 8 -4 11 4 16 -5 19 -36 4 -49 -4 -58 -30 -32 -20 20 -20 82 0 82 5 0 6 -4
3 -10z m96 -83 c-1 -4 -1 -23 -1 -42 0 -52 -15 -42 -16 10 0 25 3 44 8 43 5
-2 9 -7 9 -11z"/>
<path d="M1890 1666 c0 -2 7 -6 15 -10 8 -3 15 -1 15 4 0 6 -7 10 -15 10 -8 0
-15 -2 -15 -4z"/>
<path d="M1122 1660 c0 -14 2 -19 5 -12 2 6 2 18 0 25 -3 6 -5 1 -5 -13z"/>
<path d="M2331 1654 c0 -11 3 -14 6 -6 3 7 2 16 -1 19 -3 4 -6 -2 -5 -13z"/>
<path d="M1528 1648 c7 -7 12 -15 12 -18 0 -11 -40 -4 -52 8 -7 7 -20 12 -29
12 -19 0 -36 -33 -20 -38 6 -2 11 -10 11 -18 0 -9 -13 -15 -37 -16 l-38 -1 35
-4 c19 -3 39 -11 43 -19 5 -9 26 -14 60 -14 29 0 59 -6 67 -12 12 -11 12 -10
1 4 -7 9 -10 22 -6 28 3 5 1 10 -4 10 -6 0 -11 -6 -11 -12 0 -9 -4 -8 -10 2
-9 13 -10 13 -10 0 0 -12 -2 -13 -9 -1 -7 11 -9 11 -14 0 -4 -9 -6 -10 -6 -2
-1 7 -8 10 -16 7 -11 -5 -15 1 -15 20 0 24 3 26 44 26 26 0 46 -5 49 -12 3 -8
6 -6 6 4 1 9 -8 23 -19 31 -11 8 -17 17 -13 20 3 4 -2 7 -12 7 -15 0 -16 -3
-7 -12z m-53 -53 c0 -25 -3 -45 -6 -45 -8 0 -18 72 -12 83 11 19 19 3 18 -38z"/>
<path d="M1774 1613 c-10 -10 -20 -27 -22 -38 -2 -17 0 -16 12 5 8 14 27 30
43 37 23 10 25 12 7 13 -12 0 -30 -8 -40 -17z"/>
<path d="M1602 1574 c-8 -9 -9 -14 -2 -14 6 0 9 -4 6 -9 -4 -5 12 -7 36 -4 50
7 62 13 25 13 -15 0 -27 4 -27 9 0 16 -25 19 -38 5z"/>
<path d="M1828 1576 c-9 -9 -26 -16 -38 -16 -18 0 -21 -4 -16 -22 3 -13 6 -27
6 -33 0 -5 5 -3 10 5 8 13 13 13 31 2 14 -9 25 -10 31 -4 12 12 -2 22 -46 33
-24 7 -19 8 19 4 30 -3 45 -1 37 4 -8 4 -13 11 -12 15 5 20 -7 27 -22 12z"/>
<path d="M1299 1563 c-13 -16 -12 -17 4 -4 9 7 17 15 17 17 0 8 -8 3 -21 -13z"/>
<path d="M2229 1563 c-13 -16 -12 -17 4 -4 9 7 17 15 17 17 0 8 -8 3 -21 -13z"/>
<path d="M1615 1527 c-17 -13 -17 -15 5 -30 13 -9 28 -13 33 -10 6 4 2 10 -9
14 -18 7 -18 7 0 14 11 5 21 3 27 -6 6 -11 9 -8 9 9 0 26 -34 31 -65 9z"/>
<path d="M1697 1528 c-3 -9 7 -13 33 -13 26 0 36 4 33 13 -3 6 -18 12 -33 12
-15 0 -30 -6 -33 -12z"/>
<path d="M1401 1514 c0 -11 3 -14 6 -6 3 7 2 16 -1 19 -3 4 -6 -2 -5 -13z"/>
<path d="M1326 1378 c1 -20 -4 -36 -13 -43 -13 -10 -13 -14 -3 -20 9 -5 11 -4
6 3 -4 7 -3 12 2 12 5 0 12 -9 15 -20 3 -11 11 -20 19 -19 9 0 9 2 1 5 -7 3
-9 12 -6 20 3 8 1 14 -5 14 -5 0 -7 11 -4 25 2 14 8 22 13 19 5 -3 9 4 9 15 0
14 -6 21 -18 21 -14 0 -18 -7 -16 -32z"/>
<path d="M1295 1380 c-3 -5 -1 -10 4 -10 6 0 11 5 11 10 0 6 -2 10 -4 10 -3 0
-8 -4 -11 -10z"/>
<path d="M1395 1340 c-3 -5 -1 -10 4 -10 6 0 11 5 11 10 0 6 -2 10 -4 10 -3 0
-8 -4 -11 -10z"/>
<path d="M1900 1340 c0 -5 10 -15 23 -21 22 -12 22 -12 3 10 -21 23 -26 26
-26 11z"/>
<path d="M1830 1257 c0 -3 12 -12 26 -22 15 -9 23 -12 20 -6 -7 11 -46 35 -46
28z"/>
<path d="M1588 1203 c7 -3 16 -2 19 1 4 3 -2 6 -13 5 -11 0 -14 -3 -6 -6z"/>
<path d="M2041 1193 c20 -28 236 -234 223 -212 -5 9 -61 65 -123 125 -63 60
-108 99 -100 87z"/>
<path d="M1495 1189 c-4 -6 -5 -12 -2 -15 2 -3 7 2 10 11 7 17 1 20 -8 4z"/>
<path d="M1409 1163 l-24 -28 28 24 c15 14 27 26 27 28 0 8 -8 1 -31 -24z"/>
<path d="M1303 1066 c-26 -24 -45 -47 -42 -50 3 -3 27 17 54 44 61 62 54 65
-12 6z"/>
<path d="M1177 953 c-4 -3 -7 -11 -7 -17 0 -6 5 -5 12 2 6 6 9 14 7 17 -3 3
-9 2 -12 -2z"/>
<path d="M1306 923 c-6 -14 -5 -15 5 -6 7 7 10 15 7 18 -3 3 -9 -2 -12 -12z"/>
<path d="M2190 910 c6 -11 13 -20 16 -20 2 0 0 9 -6 20 -6 11 -13 20 -16 20
-2 0 0 -9 6 -20z"/>
<path d="M998 813 c6 -2 18 -2 25 0 6 3 1 5 -13 5 -14 0 -19 -2 -12 -5z"/>
<path d="M2468 813 c7 -3 16 -2 19 1 4 3 -2 6 -13 5 -11 0 -14 -3 -6 -6z"/>
<path d="M2330 806 c0 -4 7 -14 15 -22 8 -9 15 -11 15 -6 0 5 -7 15 -15 22 -8
7 -15 9 -15 6z"/>
<path d="M1020 755 c0 -8 4 -15 10 -15 5 0 7 7 4 15 -4 8 -8 15 -10 15 -2 0
-4 -7 -4 -15z"/>
<path d="M2447 755 c-4 -8 -2 -17 3 -20 6 -4 10 -4 10 -1 0 2 3 11 6 20 3 9 2
16 -4 16 -5 0 -12 -7 -15 -15z"/>
<path d="M2490 760 c14 -9 7 -15 -15 -10 -5 1 -4 -4 3 -12 11 -11 14 -10 22 2
10 16 4 30 -13 30 -7 0 -6 -4 3 -10z"/>
<path d="M2516 753 c-3 -4 -6 -15 -6 -27 0 -20 0 -20 16 0 11 13 14 14 11 3
-3 -9 4 -21 15 -28 18 -11 20 -11 14 4 -3 9 -6 20 -6 23 0 11 -37 32 -44 25z"/>
<path d="M926 720 c-8 -16 -11 -30 -6 -30 5 0 10 5 12 10 2 6 13 12 26 13 15
1 21 6 17 15 -3 7 -5 16 -5 18 0 2 -6 4 -14 4 -8 0 -21 -13 -30 -30z m34 10
c0 -5 -2 -10 -4 -10 -3 0 -8 5 -11 10 -3 6 -1 10 4 10 6 0 11 -4 11 -10z"/>
<path d="M990 740 c0 -5 5 -10 11 -10 5 0 7 5 4 10 -3 6 -8 10 -11 10 -2 0 -4
-4 -4 -10z"/>
<path d="M2590 679 c0 -5 5 -7 10 -4 6 3 10 8 10 11 0 2 -4 4 -10 4 -5 0 -10
-5 -10 -11z"/>
</g>
</svg>
