<svg xmlns="http://www.w3.org/2000/svg" version="1.0" width="300.000000pt" height="278.000000pt" viewBox="0 0 300.000000 278.000000" preserveAspectRatio="xMidYMid meet">

<g transform="translate(0.000000,278.000000) scale(0.100000,-0.100000)" fill="#cf1111" stroke="none">
<path d="M1277 2695 c-376 -61 -691 -261 -898 -569 -74 -110 -108 -175 -148 -289 -84 -238 -100 -464 -50 -709 105 -522 512 -922 1057 -1039 144 -30 399 -37 529 -14 197 35 398 121 552 235 80 60 164 139 182 172 10 19 10 19 -23 2 -18 -9 -49 -28 -68 -42 l-35 -27 33 43 c19 23 38 44 43 47 28 18 199 265 199 288 0 5 -29 -26 -63 -70 -116 -143 -230 -234 -392 -313 -324 -158 -730 -142 -1050 41 -211 120 -398 376 -472 644 -25 92 -27 115 -27 285 -1 172 1 192 27 285 33 121 118 296 187 387 28 37 92 106 142 153 87 82 92 85 101 63 10 -28 57 -91 64 -85 2 3 -3 16 -12 30 -11 18 -13 27 -5 32 6 4 12 5 14 4 32 -49 35 -57 21 -69 -12 -10 -10 -20 16 -63 16 -29 59 -110 95 -180 41 -82 69 -125 76 -121 7 4 8 3 4 -5 -6 -9 28 -81 39 -81 9 0 -2 36 -13 45 -10 8 -9 11 7 11 11 0 17 -5 14 -10 -4 -5 2 -7 13 -3 17 6 17 6 3 -5 -17 -13 -19 -52 -4 -65 4 -5 5 -2 0 6 -6 10 -4 12 4 7 7 -5 10 -14 7 -22 -3 -7 0 -16 6 -20 7 -4 8 -3 4 4 -4 7 -5 12 -2 12 3 0 10 -10 17 -21 9 -17 8 -20 -3 -13 -8 5 -7 -1 5 -19 21 -33 21 -36 -1 -30 -10 2 -24 -3 -31 -11 -19 -23 -31 -20 -31 9 l0 26 -132 -3 -133 -3 -3 -81 -3 -82 48 4 c40 3 43 2 18 -5 -20 -6 6 -9 85 -7 106 1 115 2 118 21 7 46 12 49 33 27 16 -18 27 -21 59 -16 46 8 96 -10 111 -38 10 -18 11 -19 23 -3 16 22 84 34 114 21 15 -6 34 -6 58 2 52 16 39 -6 -26 -45 -60 -37 -82 -40 -124 -18 -17 9 -34 12 -43 6 -11 -6 -4 -10 26 -15 53 -8 52 -21 -3 -35 -59 -15 -59 -15 -54 14 4 21 1 25 -18 25 -21 0 -23 -3 -13 -26 5 -15 12 -30 14 -34 7 -12 132 28 200 64 33 17 63 32 67 34 4 2 8 -9 11 -25 3 -22 4 -19 6 12 2 59 11 68 58 60 30 -5 43 -2 53 9 18 23 28 20 32 -11 l3 -28 133 -3 132 -3 0 90 0 89 -125 4 c-69 2 -129 8 -135 14 -6 6 8 39 41 94 73 122 91 159 84 180 -3 10 -1 21 4 25 7 4 8 -1 4 -11 -4 -12 -3 -15 5 -10 7 4 12 13 12 19 1 7 27 59 60 117 44 77 56 108 48 117 -17 21 -35 15 -59 -19 -13 -17 -18 -28 -11 -24 9 5 12 -4 12 -33 0 -23 -3 -41 -7 -40 -15 2 -53 -13 -53 -21 0 -5 10 -6 21 -3 16 4 20 2 17 -8 -3 -8 -11 -14 -19 -14 -9 0 -13 -10 -11 -28 2 -19 -2 -27 -12 -27 -12 0 -15 11 -12 50 1 28 -1 47 -5 43 -33 -36 -189 -230 -189 -235 0 -17 17 -7 30 17 7 14 20 25 27 25 8 0 12 4 9 8 -6 9 10 37 21 37 4 1 18 6 31 13 20 12 22 11 22 -13 0 -25 -7 -29 -45 -26 l-20 2 20 -17 c18 -15 18 -16 1 -10 -14 5 -17 3 -12 -11 4 -9 1 -20 -5 -24 -20 -12 -20 -42 -1 -34 9 3 13 3 9 -1 -4 -4 -2 -13 4 -20 6 -7 -14 0 -44 16 l-54 30 -36 -53 -37 -52 0 74 c0 70 -2 75 -35 112 -33 37 -35 43 -35 109 0 59 2 68 16 63 15 -5 64 32 64 49 0 15 -71 87 -100 102 -25 12 -31 12 -41 0 -6 -8 -15 -12 -19 -9 -12 7 -47 -38 -47 -60 0 -11 8 -26 18 -33 9 -6 21 -27 24 -45 4 -17 13 -35 19 -39 8 -6 7 -8 -1 -8 -9 0 -13 -15 -13 -43 0 -24 -6 -49 -12 -56 -8 -8 -8 -11 -2 -8 7 4 17 0 24 -7 9 -12 7 -17 -9 -25 -28 -15 -34 -14 -27 6 5 13 0 11 -18 -6 -23 -22 -26 -32 -27 -100 -1 -125 -6 -126 -76 -20 -34 52 -83 119 -109 149 -64 75 -203 254 -243 315 -19 28 -43 57 -54 66 -20 16 -19 17 24 45 190 120 434 182 669 171 225 -11 448 -106 624 -268 91 -83 49 -22 -62 91 -178 180 -412 304 -675 356 -114 22 -340 27 -450 9z m-134 -426 c5 -3 2 -9 -5 -12 -9 -3 -14 3 -15 15 -1 11 1 16 5 12 4 -5 11 -12 15 -15z m631 -98 c-4 -3 -9 0 -11 7 -3 6 -15 12 -28 12 -13 0 -25 -6 -28 -12 -2 -8 -8 -9 -13 -4 -5 5 -4 11 4 13 7 3 18 11 25 17 8 10 16 8 34 -8 13 -10 20 -22 17 -25z m449 -21 c-3 -12 -8 -19 -11 -16 -5 6 5 36 12 36 2 0 2 -9 -1 -20z m-949 -75 c5 0 11 -6 14 -14 3 -10 0 -12 -12 -8 -10 4 -22 7 -27 7 -5 0 -9 7 -9 16 0 10 4 12 13 7 6 -4 16 -8 21 -8z m479 -32 c-7 -2 -21 -2 -30 0 -10 3 -4 5 12 5 17 0 24 -2 18 -5z m-463 -13 c0 -5 6 -7 14 -4 10 4 14 -4 14 -30 0 -39 -22 -50 -31 -16 -3 11 -1 18 4 14 5 -3 9 -1 9 4 0 5 -9 12 -20 15 -23 6 -27 27 -5 27 8 0 15 -4 15 -10z m66 -37 c-7 -7 -26 7 -26 19 0 6 6 6 15 -2 9 -7 13 -15 11 -17z m754 12 c0 -8 -7 -15 -16 -15 -14 0 -14 3 -4 15 7 8 14 15 16 15 2 0 4 -7 4 -15z m-350 -27 c0 -5 -7 -8 -15 -8 -8 0 -15 -5 -15 -11 0 -5 -4 -7 -10 -4 -20 12 -10 33 15 31 14 0 25 -4 25 -8z m-400 -18 c0 -13 -5 -18 -15 -14 -8 4 -15 12 -15 20 0 8 7 14 15 14 8 0 15 -9 15 -20z m747 -22 c-3 -59 -25 -62 -25 -4 0 32 4 46 13 46 10 0 13 -12 12 -42z m-52 -5 c-26 -18 -32 -7 -9 18 12 14 20 17 23 8 2 -7 -4 -18 -14 -26z m-655 12 c10 -12 10 -15 -4 -15 -9 0 -16 7 -16 15 0 8 2 15 4 15 2 0 9 -7 16 -15z m-80 -10 c0 -8 -2 -15 -4 -15 -2 0 -6 7 -10 15 -3 8 -1 15 4 15 6 0 10 -7 10 -15z m38 -24 c3 -16 -1 -22 -10 -19 -7 3 -15 15 -16 27 -3 16 1 22 10 19 7 -3 15 -15 16 -27z m392 25 c0 -3 -4 -8 -10 -11 -5 -3 -10 -1 -10 4 0 6 5 11 10 11 6 0 10 -2 10 -4z m-342 -45 c3 -19 0 -22 -13 -17 -9 3 -19 6 -21 6 -2 0 -4 9 -4 21 0 29 34 21 38 -10z m32 -1 c9 -16 8 -18 -5 -14 -8 4 -15 12 -15 20 0 20 7 17 20 -6z m350 5 c7 -9 8 -15 2 -15 -5 0 -12 7 -16 15 -3 8 -4 15 -2 15 2 0 9 -7 16 -15z m-402 -36 c2 -5 7 -7 11 -5 4 3 7 -8 7 -25 0 -16 -3 -29 -8 -29 -4 0 -7 10 -5 21 1 12 -4 24 -12 27 -9 3 -11 0 -6 -9 4 -8 -2 -4 -14 8 -11 12 -21 25 -21 28 0 9 44 -6 48 -16z m362 11 c0 -5 -7 -10 -16 -10 -8 0 -12 5 -9 10 3 6 10 10 16 10 5 0 9 -4 9 -10z m330 -10 c0 -5 -4 -10 -9 -10 -6 0 -13 5 -16 10 -3 6 1 10 9 10 9 0 16 -4 16 -10z m-630 -10 c0 -5 -5 -10 -11 -10 -5 0 -7 -4 -4 -10 3 -5 1 -10 -4 -10 -13 0 -13 3 -5 24 7 18 24 22 24 6z m235 -13 c13 4 16 3 11 -5 -11 -18 -56 -15 -56 4 0 13 3 14 14 5 7 -6 22 -8 31 -4z m8 -57 c28 0 19 -6 -20 -13 -25 -5 -33 -3 -33 7 0 16 23 28 28 15 2 -5 13 -9 25 -9z m-189 -48 c3 -5 -1 -9 -9 -9 -8 0 -12 4 -9 9 3 4 7 8 9 8 2 0 6 -4 9 -8z m456 -9 c0 -15 -2 -16 -10 -3 -8 12 -10 12 -10 1 0 -8 -3 -12 -6 -8 -8 7 4 27 17 27 5 0 9 -8 9 -17z m-295 -13 c-3 -6 4 -10 17 -11 13 0 17 -3 9 -6 -11 -5 -11 -7 0 -14 10 -6 8 -9 -8 -9 -26 0 -51 35 -30 43 18 8 19 8 12 -3z m173 -72 c2 -12 -3 -18 -15 -18 -14 0 -12 -4 10 -18 15 -9 27 -21 27 -26 0 -4 -7 -3 -15 4 -11 9 -22 9 -44 2 -16 -6 -31 -8 -34 -6 -3 3 -33 9 -68 13 l-64 8 70 3 c55 2 64 4 40 10 -16 4 -47 8 -67 9 -31 1 -38 5 -38 21 0 20 5 21 97 18 84 -3 98 -6 101 -20z m-325 -28 c3 -11 1 -18 -4 -14 -5 3 -9 12 -9 20 0 20 7 17 13 -6z m462 10 c-3 -5 -1 -10 4 -10 6 0 11 -8 11 -17 0 -15 -2 -14 -14 2 -13 18 -13 35 0 35 3 0 2 -4 -1 -10z m-637 -7 c-32 -2 -86 -2 -120 0 -35 2 -9 3 57 3 66 0 94 -1 63 -3z m809 1 c-3 -3 -12 -4 -19 -1 -8 3 -5 6 6 6 11 1 17 -2 13 -5z m86 -1 c-13 -2 -35 -2 -50 0 -16 2 -5 4 22 4 28 0 40 -2 28 -4z m-1006 -41 c-10 -10 -17 -23 -17 -29 0 -29 96 -37 125 -10 20 18 20 18 -5 37 l-25 20 50 -1 c39 0 46 -2 33 -10 -22 -12 -24 -59 -3 -59 8 0 15 -4 15 -10 0 -6 -48 -10 -125 -10 l-125 0 0 45 0 45 47 0 c44 0 45 -1 30 -18z m243 8 c0 -5 -5 -10 -11 -10 -5 0 -7 5 -4 10 3 6 8 10 11 10 2 0 4 -4 4 -10z m604 -11 c-28 -31 -8 -54 50 -55 33 0 51 5 64 19 16 18 16 19 -1 32 -26 19 -21 25 23 25 l40 0 0 -45 0 -45 -82 0 c-75 0 -84 2 -110 27 -15 15 -28 32 -28 39 0 7 -6 15 -12 17 -7 3 7 6 31 6 44 1 44 1 25 -20z m-347 -5 c-3 -3 -12 -4 -19 -1 -8 3 -5 6 6 6 11 1 17 -2 13 -5z m-467 -20 c0 -8 -4 -12 -10 -9 -5 3 -10 10 -10 16 0 5 5 9 10 9 6 0 10 -7 10 -16z m45 7 c3 -5 1 -12 -5 -16 -5 -3 -10 1 -10 9 0 18 6 21 15 7z m815 -1 c0 -5 -4 -10 -10 -10 -5 0 -10 5 -10 10 0 6 5 10 10 10 6 0 10 -4 10 -10z m40 1 c0 -6 -4 -13 -10 -16 -5 -3 -10 1 -10 9 0 9 5 16 10 16 6 0 10 -4 10 -9z m-283 -7 c-3 -3 -12 -4 -19 -1 -8 3 -5 6 6 6 11 1 17 -2 13 -5z m-310 -176 c-3 -8 -6 -5 -6 6 -1 11 2 17 5 13 3 -3 4 -12 1 -19z" fill="#cf1111"/>
<path d="M2299 2293 c-9 -2 -26 -22 -38 -44 -26 -46 -23 -64 4 -22 10 15 29 38 43 51 25 22 23 24 -9 15z" fill="#cf1111"/>
<path d="M2315 2260 c4 -6 -1 -7 -11 -3 -13 5 -15 2 -10 -14 4 -12 1 -25 -9 -33 -8 -7 -15 -16 -15 -21 0 -19 18 -7 43 28 25 35 27 53 6 53 -6 0 -7 -4 -4 -10z" fill="#cf1111"/>
<path d="M1635 2139 c-4 -6 -5 -12 -2 -15 2 -3 7 2 10 11 7 17 1 20 -8 4z" fill="#cf1111"/>
<path d="M2150 2095 c-19 -21 -21 -25 -7 -25 9 0 17 7 17 15 0 7 8 19 18 24 9 6 12 11 6 11 -6 0 -21 -11 -34 -25z" fill="#cf1111"/>
<path d="M2175 2090 c-3 -5 -1 -10 4 -10 6 0 11 5 11 10 0 6 -2 10 -4 10 -3 0 -8 -4 -11 -10z" fill="#cf1111"/>
<path d="M1967 1833 c-7 -16 -2 -36 11 -39 7 -1 8 0 2 3 -6 2 0 13 12 24 l23 18 -22 1 c-12 0 -24 -3 -26 -7z" fill="#cf1111"/>
<path d="M1305 1370 c-16 -18 -17 -21 -1 -44 9 -14 50 -41 91 -61 41 -20 75 -39 75 -41 0 -3 -4 -3 -9 0 -4 3 -34 -21 -64 -53 -31 -32 -58 -57 -60 -55 -2 3 -22 -15 -45 -40 -22 -24 -42 -42 -44 -41 -2 2 -27 -18 -56 -44 -29 -26 -52 -46 -52 -44 0 3 -14 -5 -30 -17 -17 -12 -28 -26 -24 -31 3 -5 10 -7 15 -3 5 3 7 10 3 15 -3 6 0 9 7 7 18 -3 70 32 64 42 -3 5 -1 11 4 15 6 3 8 -5 5 -20 -3 -17 0 -23 8 -21 7 3 29 7 48 10 33 6 32 5 -29 -40 -34 -25 -65 -43 -68 -41 -2 3 5 10 16 17 23 12 28 35 9 46 -7 5 -9 2 -5 -9 8 -22 -21 -46 -34 -26 -7 11 -9 9 -9 -8 0 -13 -6 -23 -12 -23 -16 0 -40 15 -39 24 1 9 -7 8 -25 -2 -11 -6 1 -13 42 -26 30 -10 54 -19 52 -22 -9 -8 -128 19 -122 28 8 12 -138 -93 -148 -106 -13 -19 14 -36 56 -36 61 0 136 40 283 151 152 115 167 131 138 152 -6 4 -5 10 5 17 21 14 33 12 23 -2 -10 -17 -13 -38 -5 -38 4 0 57 47 119 105 95 90 116 105 145 105 18 0 60 11 92 25 l59 24 101 -97 c183 -176 473 -401 497 -386 7 4 9 3 6 -3 -8 -13 79 -52 123 -55 40 -2 60 7 60 27 0 12 -160 135 -176 135 -28 0 -335 262 -476 408 -55 56 -88 83 -88 72 0 -43 -104 -139 -127 -117 -3 3 -12 0 -20 -8 -9 -9 -34 -15 -63 -15 l-49 0 -4 48 -3 47 -2 -48 -2 -49 -32 7 c-18 4 -37 11 -42 15 -5 5 -5 38 -2 74 7 56 10 65 29 69 12 2 -26 5 -84 6 -94 1 -108 -1 -124 -19z m175 -15 c0 -20 -5 -24 -22 -22 -15 1 -23 -3 -23 -13 0 -8 8 -14 18 -14 13 1 17 -6 17 -31 l0 -34 -50 22 c-52 23 -59 38 -44 95 6 19 13 22 55 22 46 0 49 -2 49 -25z m460 -132 c0 -7 -6 -13 -12 -13 -22 0 -41 17 -34 29 4 6 3 11 -3 11 -5 0 -11 -5 -13 -10 -2 -6 -13 -12 -26 -15 -12 -2 -20 0 -18 4 3 5 -4 17 -17 27 -21 19 -21 19 -7 -1 14 -18 14 -19 -2 -6 -14 10 -15 17 -6 35 15 29 14 29 38 16 12 -7 19 -18 16 -26 -4 -9 2 -14 16 -14 19 0 18 3 -11 30 -17 17 -31 36 -31 42 0 7 25 -12 55 -42 30 -30 55 -60 55 -67z m-450 -24 c-6 -10 -16 -19 -23 -19 -8 0 -7 -4 3 -10 13 -9 11 -13 -9 -31 -19 -15 -26 -17 -32 -7 -6 10 -9 8 -9 -5 0 -11 -5 -17 -12 -14 -7 2 -11 12 -10 22 3 17 2 17 -15 5 -10 -8 2 7 26 33 24 25 48 44 52 41 4 -2 10 0 14 6 12 19 26 0 15 -21z m40 11 c0 -5 -4 -10 -10 -10 -5 0 -10 5 -10 10 0 6 5 10 10 10 6 0 10 -4 10 -10z m401 -10 c16 0 20 -5 16 -19 -2 -10 0 -26 5 -35 6 -10 5 -16 -2 -16 -6 0 -8 -6 -4 -12 4 -7 -16 9 -44 36 -35 33 -48 52 -40 57 7 4 20 3 29 -2 10 -5 28 -9 40 -9z m99 -78 c-8 -3 -16 0 -18 6 -2 6 -9 9 -16 6 -19 -7 -36 19 -29 46 6 23 7 23 41 -15 26 -28 32 -40 22 -43z m-508 56 c-15 -15 -16 -31 0 -22 7 4 8 3 4 -5 -4 -6 -11 -9 -15 -6 -10 5 -94 -65 -87 -73 3 -3 1 -11 -5 -18 -9 -10 -16 -11 -33 -2 -29 15 -29 14 -16 37 6 12 8 21 5 21 -3 0 -13 -16 -21 -35 -8 -21 -21 -35 -32 -35 -25 -1 -73 -47 -70 -67 2 -13 -5 -19 -24 -21 -22 -3 -28 1 -28 16 0 15 48 73 53 64 1 -2 10 0 19 3 10 4 16 10 13 15 -2 4 7 18 20 30 14 13 25 20 25 15 0 -4 8 0 19 9 15 14 23 15 44 5 23 -10 31 -9 62 16 21 15 34 33 31 40 -5 14 7 23 34 24 11 1 11 -2 2 -11z m472 -64 c10 -9 24 -13 35 -9 14 4 23 0 30 -14 13 -23 14 -34 4 -28 -11 7 -33 -19 -25 -29 4 -5 -8 4 -25 20 -18 16 -31 32 -28 34 3 3 -2 14 -12 24 -20 22 -1 24 21 2z m226 -151 c0 -14 -10 -16 -34 -7 -11 4 -14 14 -10 33 4 14 3 23 -1 19 -4 -4 -15 2 -24 12 -9 11 -27 21 -40 23 -17 3 -27 14 -36 40 -12 35 -11 35 66 -35 44 -40 79 -78 79 -85z m-138 74 c7 -8 19 -12 26 -9 16 5 44 -17 36 -29 -3 -5 3 -9 12 -9 10 0 14 -3 10 -7 -12 -13 -35 -11 -47 3 -14 17 -33 19 -23 2 4 -7 -4 -3 -18 10 -13 12 -25 29 -25 37 0 19 11 19 29 2z m-750 -19 c7 -19 -39 -51 -60 -43 -15 6 -15 8 3 15 11 5 16 9 11 9 -13 1 15 31 29 31 8 0 15 -6 17 -12z m886 -80 c25 -4 32 -1 28 9 -3 8 10 2 29 -12 20 -16 32 -32 28 -41 -6 -16 -13 -17 -31 -6 -7 5 -10 16 -6 25 3 9 2 17 -4 17 -23 0 -20 -31 4 -46 13 -9 22 -19 19 -22 -3 -3 -14 3 -24 12 -11 10 -25 15 -32 10 -7 -4 -10 -3 -5 4 6 9 -29 37 -44 35 -3 -1 -4 3 -2 8 1 5 -2 9 -8 9 -5 0 -10 5 -10 11 0 8 4 8 13 1 6 -5 27 -12 45 -14z m121 -51 c12 -15 5 -27 -16 -27 -7 0 -13 9 -13 20 0 23 13 26 29 7z m65 -26 c4 -5 -13 -12 -36 -16 -24 -4 -48 -11 -55 -17 -7 -6 -14 -5 -18 2 -4 6 -5 13 -4 14 3 2 79 21 101 25 4 0 9 -3 12 -8z m-1379 -61 c3 -6 -1 -7 -9 -4 -18 7 -21 14 -7 14 6 0 13 -4 16 -10z m-70 -20 c-3 -5 -12 -10 -18 -10 -7 0 -6 4 3 10 19 12 23 12 15 0z m35 -4 c0 -2 -7 -7 -16 -10 -8 -3 -12 -2 -9 4 6 10 25 14 25 6z" fill="#cf1111"/>
<path d="M1385 1331 c-7 -12 12 -24 25 -16 11 7 4 25 -10 25 -5 0 -11 -4 -15 -9z" fill="#cf1111"/>
<path d="M1424 1178 l-29 -33 33 29 c30 28 37 36 29 36 -2 0 -16 -15 -33 -32z" fill="#cf1111"/>
<path d="M1870 1203 c0 -5 17 -25 37 -44 33 -29 34 -30 13 -4 -41 48 -50 57 -50 48z" fill="#cf1111"/>
<path d="M1304 1068 l-19 -23 23 19 c12 11 22 21 22 23 0 8 -8 2 -26 -19z" fill="#cf1111"/>
<path d="M1224 998 l-19 -23 23 19 c21 18 27 26 19 26 -2 0 -12 -10 -23 -22z" fill="#cf1111"/>
<path d="M2005 1070 c10 -11 20 -20 23 -20 3 0 -3 9 -13 20 -10 11 -20 20 -23 20 -3 0 3 -9 13 -20z" fill="#cf1111"/>
<path d="M2060 1026 c0 -2 8 -10 18 -17 15 -13 16 -12 3 4 -13 16 -21 21 -21 13z" fill="#cf1111"/>
<path d="M1512 1323 c-10 -4 -10 -8 -2 -18 11 -14 40 -10 40 5 0 11 -22 18 -38 13z" fill="#cf1111"/>
<path d="M1594 1316 c-9 -23 7 -38 26 -26 13 8 13 11 -2 26 -16 17 -18 17 -24 0z" fill="#cf1111"/>
</g>
</svg>